# xmcd
#
# Track frame offsets:
#	150
#	19752
#	34132
#	54546
#	72036
#	98331
#	125624
#	142503
#	155689
#	168842
#	180647
#	207990
#	222935
#	244949
#	259536
#
# Disc length: 3758 seconds
#
# Revision: 0
# Processed by: cddbd v1.5.2PL0 Copyright (c) Steve Scherf et al.
# Submitted via: EZCDAudioConverter 2.1.7.1
#
DISCID=c60eac0f
DTITLE=V/A - 278_Dream Pop
DYEAR=1900
DGENRE=MOJO
TTITLE0=School Of Seven Bells - Elias
TTITLE1=Poliça - Lately
TTITLE2=Jenny Hval - Conceptual Romance
TTITLE3=The Album Leaf - Never Far
TTITLE4=Nite Jewel - Running Out Of Time
TTITLE5=A Winged Victory For The Sullen - Atomos VI
TTITLE6=The Anchoress - Bury Me
TTITLE7=Haley Nonar - Skynz
TTITLE8=Noveller - Corridors
TTITLE9=Nicholas Krgovich - The Hills
TTITLE10=Dawn Of Midi - Io
TTITLE11=Amber Arcades - I Will Follow
TTITLE12=Bob Moses - Keeping Me Alive
TTITLE13=Ólafur Arnalds and Nils Frahm - Four
TTITLE14=Yann Tiersen - Porz Goret
EXTD=
EXTT0=
EXTT1=
EXTT2=
EXTT3=
EXTT4=
EXTT5=
EXTT6=
EXTT7=
EXTT8=
EXTT9=
EXTT10=
EXTT11=
EXTT12=
EXTT13=
EXTT14=
PLAYORDER=
